# xmcd CD database file
#
# Track frame offsets:
#	150
#	31007
#	63835
#	82915
#
# Disc length: 1373 seconds
#
# Revision: 0
# Processed by: cddbd v1.5.2PL0 Copyright (c) Steve Scherf et al.
# Submitted via: CDex 1.70beta2
#
DISCID=1f055b04
DTITLE=Maciek Wojcieszczuk Quintet - Demo
DYEAR=2014
DGENRE=Jazz
TTITLE0=MaRacz
TTITLE1=Blueskwa
TTITLE2=Dominikana
TTITLE3=Prosto - nieprosto
EXTD=YEAR: 2014
EXTT0=
EXTT1=
EXTT2=
EXTT3=
PLAYORDER=
